# xmcd
#
# Track frame offsets: 
#        150
#        19236
#        39257
#        59028
#        78773
#        90791
#        105514
#        122506
#        138158
#        160853
#        180413
#        200361
#        223012
#        243357
#        269825
#
# Disc length: 3996 seconds
#
# Revision: 6
# Processed by: cddbd v1.5.2PL0 Copyright (c) Steve Scherf et al.
# Submitted via: ExactAudioCopy v0.99pb5
#
DISCID=c00f9a0f
DTITLE=Sia - Some People Have Real Problems
DYEAR=2008
DGENRE=Chill-Out
TTITLE0=Little Black Sandals
TTITLE1=Lentil
TTITLE2=Day Too Soon
TTITLE3=You Have Been Loved
TTITLE4=The Girl You Lost To Cocaine
TTITLE5=Academia
TTITLE6=I Go To Sleep
TTITLE7=Playground
TTITLE8=Death By Chocolate
TTITLE9=Soon We'll Be Found
TTITLE10=Electric Bird
TTITLE11=Beautiful Calm Driving
TTITLE12=Lullaby
TTITLE13=Buttons
TTITLE14=Data
EXTD=
EXTT0=
EXTT1=
EXTT2=
EXTT3=
EXTT4=
EXTT5=
EXTT6=
EXTT7=
EXTT8=
EXTT9=
EXTT10=
EXTT11=
EXTT12=
EXTT13=
EXTT14=
PLAYORDER=
